<svg width="16" height="16" viewBox="0 0 16 16" fill="none" xmlns="http://www.w3.org/2000/svg">
<path d="M9.89955 13.749C10.0824 13.9107 10.318 14 10.5621 14C10.8062 14 11.0418 13.9107 11.2246 13.749C11.3847 13.609 11.4828 13.4113 11.4974 13.1991C11.512 12.9869 11.442 12.7776 11.3026 12.617L11.2246 12.537L6.26432 7.99967L11.2246 3.46238C11.3844 3.32239 11.4823 3.12486 11.4969 2.91293C11.5115 2.70101 11.4417 2.49191 11.3026 2.33131L11.2246 2.2513C11.0562 2.10264 10.8428 2.01475 10.6185 2.0017C10.3943 1.98864 10.1721 2.05118 9.98756 2.1793L9.89955 2.2493L4.27419 7.39364C4.11441 7.53362 4.01652 7.73116 4.00191 7.94308C3.98729 8.15501 4.05714 8.36411 4.19619 8.52471L4.27419 8.60571L9.89955 13.75V13.749Z" fill="#485FC7"/>
</svg>
