<svg width="30" height="30" fill="none" xmlns="http://www.w3.org/2000/svg"><path fill-rule="evenodd" clip-rule="evenodd" d="M18.875 3c1.863 0 3.384 1.442 3.478 3.256l.004.176v2.375c2.242 1.283 3.75 3.68 3.75 6.426 0 2.236-.45 4.445-1.301 6.283 1.36 1.23 2.194 2.873 2.194 4.692 0 .437-.36.792-.804.792H11.018a.799.799 0 0 1-.804-.792c0-1.135.325-2.201.9-3.142H5.481c-1.863 0-3.384-1.442-3.477-3.256L2 19.634V6.432c0-1.836 1.463-3.336 3.303-3.428L5.483 3h13.392Zm-6.483 18.482c-.84-1.831-1.285-4.027-1.285-6.249 0-4.096 3.357-7.419 7.5-7.419.745 0 1.464.108 2.143.308v-1.69a1.86 1.86 0 0 0-1.741-1.843l-.134-.005H5.482c-.99 0-1.801.757-1.87 1.716l-.005.132v13.202a1.86 1.86 0 0 0 1.741 1.843l.134.005h6.91Zm-3.206-5.51a.784.784 0 0 1 .072 1.04l-.072.08-2.37 2.34a.814.814 0 0 1-1.139.002.786.786 0 0 1-.07-1.04l.071-.081 2.372-2.34a.812.812 0 0 1 1.136 0v-.001Zm4.21-8.31a.784.784 0 0 0-.072-1.039.812.812 0 0 0-1.136 0l-6.512 6.419-.072.081a.784.784 0 0 0 .072 1.039.81.81 0 0 0 1.136 0l6.512-6.418.072-.081v-.001Zm-5.43-1.039a.784.784 0 0 1 .073 1.04l-.072.08-1.155 1.138a.812.812 0 0 1-1.136 0 .784.784 0 0 1-.072-1.039l.072-.08 1.154-1.14a.812.812 0 0 1 1.137 0l-.001.001Zm5.783 13.912a9.071 9.071 0 0 1 1.856-.823c-1.16-1.037-1.82-2.686-1.82-4.492l.008-.104a.798.798 0 0 1 .735-.695l.097-.001.123.007.224-.005a3.66 3.66 0 0 0 2.94-1.814.81.81 0 0 1 1.389 0c.664 1.123 1.846 1.82 3.144 1.82l.145-.008a.8.8 0 0 1 .835.721l.004.08c0 1.805-.66 3.454-1.82 4.491.662.21 1.285.488 1.856.823.667-1.551 1.035-3.409 1.035-5.302 0-3.223-2.64-5.835-5.893-5.835-3.254 0-5.893 2.612-5.893 5.835 0 1.893.368 3.75 1.035 5.302Zm4.858-1.28-.174-.005c-1.606-.09-2.73-1.438-2.985-3.235l-.005-.047.212-.031a5.245 5.245 0 0 0 2.841-1.487l.111-.116.11.116c.822.835 1.9 1.37 3.063 1.519l-.012.094c-.267 1.813-1.463 3.192-3.161 3.192Zm-6.69 6.056c.54-2.512 3.305-4.472 6.69-4.472l.235.004c3.277.088 5.928 2.014 6.456 4.468l.02.105H11.897l.02-.105Z" fill="#485FC7"/></svg>