<svg width="24" height="24" viewBox="0 0 30 30" fill="none" xmlns="http://www.w3.org/2000/svg">
<path d="M27 9.25V22.75C27 23.9922 25.9922 25 24.75 25H5.25C4.00781 25 3 23.9922 3 22.75V9.25C3 8.00781 4.00781 7 5.25 7H9.375L9.95156 5.45781C10.2797 4.58125 11.1187 4 12.0562 4H17.9391C18.8766 4 19.7156 4.58125 20.0438 5.45781L20.625 7H24.75C25.9922 7 27 8.00781 27 9.25ZM20.625 16C20.625 12.8969 18.1031 10.375 15 10.375C11.8969 10.375 9.375 12.8969 9.375 16C9.375 19.1031 11.8969 21.625 15 21.625C18.1031 21.625 20.625 19.1031 20.625 16ZM19.125 16C19.125 18.2734 17.2734 20.125 15 20.125C12.7266 20.125 10.875 18.2734 10.875 16C10.875 13.7266 12.7266 11.875 15 11.875C17.2734 11.875 19.125 13.7266 19.125 16Z" fill="#485FC7"/>
</svg>
