<svg width="24" height="24" viewBox="0 0 30 30" fill="none" xmlns="http://www.w3.org/2000/svg"><path d="M27 9.25v13.5A2.25 2.25 0 0 1 24.75 25H5.25A2.25 2.25 0 0 1 3 22.75V9.25A2.25 2.25 0 0 1 5.25 7h4.125l.577-1.542A2.247 2.247 0 0 1 12.056 4h5.883c.938 0 1.777.581 2.105 1.458L20.625 7h4.125A2.25 2.25 0 0 1 27 9.25ZM20.625 16A5.63 5.63 0 0 0 15 10.375 5.63 5.63 0 0 0 9.375 16 5.63 5.63 0 0 0 15 21.625 5.63 5.63 0 0 0 20.625 16Zm-1.5 0A4.131 4.131 0 0 1 15 20.125 4.131 4.131 0 0 1 10.875 16 4.131 4.131 0 0 1 15 11.875 4.131 4.131 0 0 1 19.125 16Z" fill="#485FC7"/></svg>