<svg width="16" height="16" viewBox="0 0 16 16" fill="none" xmlns="http://www.w3.org/2000/svg">
    <path d="M2.25095 9.89955C2.08926 10.0824 2 10.318 2 10.5621C2 10.8062 2.08926 11.0418 2.25095 11.2246C2.39097 11.3847 2.58871 11.4828 2.80088 11.4974C3.01305 11.512 3.22237 11.442 3.38303 11.3026L3.46303 11.2246L8.00033 6.26432L12.5376 11.2246C12.6776 11.3844 12.8751 11.4823 13.0871 11.4969C13.299 11.5115 13.5081 11.4417 13.6687 11.3026L13.7487 11.2246C13.8974 11.0562 13.9852 10.8428 13.9983 10.6185C14.0114 10.3943 13.9488 10.1721 13.8207 9.98756L13.7507 9.89955L8.60636 4.27419C8.46638 4.11441 8.26884 4.01652 8.05692 4.00191C7.84499 3.98729 7.63589 4.05714 7.47529 4.19619L7.39429 4.27419L2.24995 9.89955L2.25095 9.89955Z" fill="white"/>
</svg>
