<svg width="16" height="16" viewBox="0 0 16 16" fill="none" xmlns="http://www.w3.org/2000/svg">
<path d="M13.749 6.10045C13.9107 5.91763 14 5.68198 14 5.43791C14 5.19384 13.9107 4.95819 13.749 4.77537C13.609 4.61529 13.4113 4.5172 13.1991 4.50258C12.9869 4.48797 12.7776 4.558 12.617 4.69736L12.537 4.77537L7.99967 9.73568L3.46238 4.77536C3.32239 4.61558 3.12486 4.5177 2.91293 4.50308C2.70101 4.48847 2.49191 4.55831 2.33131 4.69736L2.2513 4.77536C2.10264 4.94379 2.01475 5.1572 2.0017 5.38147C1.98864 5.60574 2.05118 5.82791 2.1793 6.01244L2.2493 6.10045L7.39364 11.7258C7.53362 11.8856 7.73116 11.9835 7.94308 11.9981C8.15501 12.0127 8.36411 11.9429 8.52471 11.8038L8.60571 11.7258L13.75 6.10045L13.749 6.10045Z" fill="white"/>
</svg>
