<svg width="8" height="12" viewBox="0 0 8 12" fill="none" xmlns="http://www.w3.org/2000/svg">
<path d="M2.10083 0.251317C1.91801 0.0896296 1.68238 0.000378056 1.43833 0.000378035C1.19427 0.000378014 0.958641 0.0896295 0.775828 0.251316C0.615761 0.391327 0.517684 0.589052 0.503065 0.801209C0.488447 1.01337 0.558477 1.22267 0.697828 1.38332L0.775828 1.46332L5.73583 6.00032L0.775827 10.5373C0.616058 10.6773 0.518175 10.8748 0.503561 11.0867C0.488946 11.2986 0.558786 11.5077 0.697827 11.6683L0.775827 11.7483C0.944239 11.897 1.15764 11.9849 1.38189 11.9979C1.60615 12.011 1.82831 11.9484 2.01283 11.8203L2.10083 11.7503L7.72583 6.60632C7.8856 6.46634 7.98348 6.26882 7.99809 6.0569C8.01271 5.84499 7.94287 5.6359 7.80383 5.47532L7.72583 5.39432L2.10083 0.250316L2.10083 0.251317Z" fill="#485FC7"/>
</svg>
