<svg width="8" height="12" viewBox="0 0 8 12" fill="none" xmlns="http://www.w3.org/2000/svg">
<path d="M5.89917 11.7487C6.08199 11.9104 6.31762 11.9996 6.56167 11.9996C6.80573 11.9996 7.04136 11.9104 7.22417 11.7487C7.38424 11.6087 7.48232 11.4109 7.49694 11.1988C7.51155 10.9866 7.44152 10.7773 7.30217 10.6167L7.22417 10.5367L2.26417 5.99967L7.22417 1.46267C7.38394 1.32269 7.48182 1.12517 7.49644 0.913261C7.51105 0.701348 7.44121 0.492262 7.30217 0.331674L7.22417 0.251674C7.05576 0.103019 6.84236 0.0151372 6.61811 0.00208432C6.39385 -0.0109686 6.17169 0.0515617 5.98717 0.179674L5.89917 0.249674L0.274173 5.39367C0.114404 5.53365 0.0165215 5.73117 0.00190677 5.94309C-0.0127079 6.155 0.0571325 6.36409 0.196173 6.52467L0.274173 6.60567L5.89917 11.7497V11.7487Z" fill="#485FC7"/>
</svg>
