<svg width="16" height="16" viewBox="0 0 16 16" fill="none" xmlns="http://www.w3.org/2000/svg">
<path fill-rule="evenodd" clip-rule="evenodd" d="M8.0001 14.4C11.5345 14.4 14.4001 11.5344 14.4001 7.99998C14.4001 4.46558 11.5345 1.59998 8.0001 1.59998C4.4657 1.59998 1.6001 4.46558 1.6001 7.99998C1.6001 11.5344 4.4657 14.4 8.0001 14.4ZM9.7297 5.46718C9.84426 5.35894 9.99651 5.29965 10.1541 5.30191C10.3117 5.30417 10.4622 5.36781 10.5736 5.47928C10.685 5.59076 10.7485 5.74129 10.7507 5.89888C10.7529 6.05647 10.6935 6.20868 10.5852 6.32318L8.87316 8.03518L10.5852 9.74718C10.644 9.80275 10.6911 9.86955 10.7236 9.94364C10.7562 10.0177 10.7736 10.0976 10.7747 10.1785C10.7759 10.2594 10.7608 10.3397 10.7304 10.4147C10.7 10.4897 10.6548 10.5578 10.5976 10.6151C10.5404 10.6723 10.4723 10.7175 10.3973 10.748C10.3224 10.7784 10.2421 10.7936 10.1611 10.7925C10.0802 10.7914 10.0004 10.774 9.92625 10.7415C9.85214 10.709 9.78531 10.662 9.7297 10.6032L8.0177 8.89117L6.3057 10.6032C6.19169 10.7143 6.0385 10.776 5.87931 10.775C5.72011 10.774 5.56773 10.7103 5.45516 10.5977C5.34259 10.4851 5.2789 10.3328 5.27787 10.1736C5.27685 10.0144 5.33858 9.86118 5.4497 9.74718L7.1617 8.03518L5.4497 6.32318C5.33858 6.20917 5.27685 6.05598 5.27787 5.89679C5.2789 5.73759 5.34259 5.58521 5.45516 5.47264C5.56773 5.36007 5.72011 5.29637 5.87931 5.29535C6.0385 5.29433 6.19169 5.35606 6.3057 5.46718L8.0177 7.17918L9.7297 5.46718Z" fill="#EEF3FC"/>
</svg>
