<svg width="30" height="30" fill="none" xmlns="http://www.w3.org/2000/svg"><path fill-rule="evenodd" clip-rule="evenodd" d="M15 3c.51 0 .923.413.923.923v.923h1.846a.923.923 0 1 1 0 1.846h-1.846v16.616h1.846a.923.923 0 1 1 0 1.846h-1.846v.923a.923.923 0 0 1-1.846 0v-.923H8.538a4.615 4.615 0 0 1-4.61-4.415l-.005-.2V9.461A4.616 4.616 0 0 1 8.338 4.85l.2-.004h5.539v-.923c0-.51.413-.923.923-.923Zm10.153 16.615c.51 0 .923.414.923.924a4.615 4.615 0 0 1-4.616 4.615.923.923 0 0 1-.107-1.84l.107-.006a2.77 2.77 0 0 0 2.77-2.77c0-.51.413-.923.923-.923ZM8.538 6.692h5.539v16.616H8.538l-.162-.005a2.77 2.77 0 0 1-2.607-2.765V9.462l.005-.163a2.77 2.77 0 0 1 2.764-2.607Zm16.616 5.539c.51 0 .923.413.923.923v3.692a.923.923 0 0 1-1.846 0v-3.692c0-.51.413-.923.923-.923Zm.923-2.77a4.615 4.615 0 0 0-4.616-4.615.923.923 0 1 0 0 1.846 2.77 2.77 0 0 1 2.77 2.77.923.923 0 1 0 1.846 0v-.001Z" fill="#485FC7"/></svg>