<svg width="17" height="16" fill="none" xmlns="http://www.w3.org/2000/svg"><path fill-rule="evenodd" clip-rule="evenodd" d="M4.51 4.8H4.1a2 2 0 0 0-2 2v5.6a2 2 0 0 0 2 2h5.6a2 2 0 0 0 2-2V12h-1v.4a1 1 0 0 1-1 1H4.1a1 1 0 0 1-1-1V6.8a1 1 0 0 1 1-1h.41v-1Z" fill="#485FC7"/><path fill-rule="evenodd" clip-rule="evenodd" d="M12.9 2.6H7.3a1 1 0 0 0-1 1v5.6a1 1 0 0 0 1 1h5.6a1 1 0 0 0 1-1V3.6a1 1 0 0 0-1-1Zm-5.6-1a2 2 0 0 0-2 2v5.6a2 2 0 0 0 2 2h5.6a2 2 0 0 0 2-2V3.6a2 2 0 0 0-2-2H7.3Z" fill="#485FC7"/></svg>