<svg width="30" height="30" fill="none" xmlns="http://www.w3.org/2000/svg"><path fill-rule="evenodd" clip-rule="evenodd" d="M2.089 14.7C4.769 10.588 9.553 7.86 15 7.86c5.447 0 10.232 2.727 12.911 6.84a.55.55 0 0 1 0 .599C25.231 19.414 20.445 22.14 15 22.14c-5.447 0-10.232-2.728-12.911-6.84a.55.55 0 0 1 0-.6Zm1.121.3c2.51 3.633 6.848 6.042 11.79 6.042 4.942 0 9.277-2.41 11.79-6.042-2.513-3.631-6.848-6.042-11.79-6.042-4.942 0-9.28 2.41-11.79 6.042Zm7.652 0a4.137 4.137 0 1 1 8.275 0 4.137 4.137 0 0 1-8.275 0ZM15 11.782a3.218 3.218 0 1 0 0 6.437 3.218 3.218 0 0 0 0-6.437Z" fill="#485FC7"/><path fill-rule="evenodd" clip-rule="evenodd" d="M1.88 14.564C4.605 10.38 9.469 7.61 15 7.61c5.531 0 10.395 2.77 13.12 6.954a.799.799 0 0 1 0 .872C25.395 19.622 20.53 22.39 15 22.39c-5.531 0-10.395-2.77-13.12-6.953a.8.8 0 0 1 0-.873ZM15 8.11c-5.363 0-10.069 2.686-12.701 6.728a.3.3 0 0 0 0 .327C4.93 19.204 9.636 21.89 15 21.89c5.361 0 10.069-2.684 12.701-6.727a.3.3 0 0 0 .049-.164M15 8.11c5.363 0 10.069 2.686 12.701 6.727L15 8.109ZM3.516 15c2.477 3.487 6.689 5.793 11.484 5.793S24.004 18.484 26.484 15c-2.48-3.485-6.69-5.792-11.484-5.792-4.795 0-9.007 2.307-11.484 5.792Zm-.511-.141c2.556-3.7 6.971-6.15 11.995-6.15 5.024 0 9.436 2.45 11.995 6.15l.098.142-.098.142c-2.56 3.699-6.971 6.15-11.995 6.15-5.024 0-9.439-2.45-11.995-6.15L2.907 15l.098-.142Zm8.893-2.96a4.388 4.388 0 1 1 6.205 6.205 4.388 4.388 0 0 1-6.206-6.206ZM15 11.112a3.887 3.887 0 1 0 0 7.775 3.887 3.887 0 0 0 0-7.775Zm0 .92a2.97 2.97 0 0 0-1.136 5.71A2.968 2.968 0 1 0 15 12.032Zm-1.327-.236a3.468 3.468 0 1 1 2.654 6.408 3.468 3.468 0 0 1-2.654-6.408Z" fill="#485FC7"/></svg>