<svg width="24" height="24" fill="none" xmlns="http://www.w3.org/2000/svg"><path fill-rule="evenodd" clip-rule="evenodd" d="M4.273 12c1.645 2.38 4.488 3.96 7.727 3.96s6.08-1.58 7.727-3.96C18.08 9.62 15.239 8.04 12 8.04S5.918 9.62 4.273 12Zm-.735-.196C5.294 9.108 8.43 7.32 12 7.32c3.57 0 6.706 1.788 8.462 4.483a.36.36 0 0 1 0 .393C18.706 14.893 15.569 16.68 12 16.68c-3.57 0-6.706-1.788-8.462-4.483a.36.36 0 0 1 0-.393Z" fill="#485FC7"/><path fill-rule="evenodd" clip-rule="evenodd" d="M12 9.48a2.52 2.52 0 1 0 0 5.041 2.52 2.52 0 0 0 0-5.041ZM8.76 12a3.24 3.24 0 1 1 6.48 0 3.24 3.24 0 0 1-6.48 0Zm10.32-6.72a.36.36 0 0 0-.36-.36h-1.44a.36.36 0 0 0 0 .72h1.08v1.08a.36.36 0 1 0 .72 0V5.28Z" fill="#485FC7"/><path fill-rule="evenodd" clip-rule="evenodd" d="M18.735 5.265a.36.36 0 0 1 0 .51l-1.44 1.44a.36.36 0 0 1-.51-.51l1.44-1.44a.36.36 0 0 1 .51 0ZM4.92 18.72c0 .199.161.36.36.36h1.44a.36.36 0 1 0 0-.72H5.64v-1.08a.36.36 0 0 0-.72 0v1.44Z" fill="#485FC7"/><path fill-rule="evenodd" clip-rule="evenodd" d="M5.266 18.735a.36.36 0 0 1 0-.51l1.44-1.44a.358.358 0 0 1 .51 0 .36.36 0 0 1-.001.51l-1.44 1.44a.361.361 0 0 1-.51 0h.001Z" fill="#485FC7"/></svg>