<svg width="24" height="24" fill="none" xmlns="http://www.w3.org/2000/svg"><g clip-path="url(#a)" fill-rule="evenodd" clip-rule="evenodd" fill="#485FC7"><path d="M5.04 11.38C5.04 6.995 8.085 3.6 12 3.6s6.96 3.396 6.96 7.78c0 1.488-.402 2.978-1.044 4.296a.72.72 0 0 1-1.295-.631c.563-1.155.899-2.43.899-3.666 0-3.737-2.541-6.339-5.52-6.339-2.978 0-5.52 2.602-5.52 6.34 0 1.235.336 2.51.899 3.665a.72.72 0 0 1-1.294.63c-.643-1.317-1.045-2.807-1.045-4.296v.001Zm3.814 6.914a.72.72 0 0 1 1.007-.154c.742.544 1.48.82 2.139.82.66 0 1.397-.276 2.14-.82a.72.72 0 1 1 .85 1.16c-.904.665-1.935 1.1-2.99 1.1-1.055 0-2.086-.435-2.99-1.1a.72.72 0 0 1-.156-1.006Z"/><path d="M13.733 16.11a.361.361 0 0 1-.083.503 2.817 2.817 0 0 1-1.65.547 2.815 2.815 0 0 1-1.65-.547.36.36 0 0 1 .42-.586c.372.267.79.413 1.23.413.44 0 .858-.146 1.23-.413a.36.36 0 0 1 .503.083Zm-5.213.69a.36.36 0 0 0-.36-.36H6.72a.36.36 0 1 0 0 .72H7.8v1.08a.36.36 0 1 0 .72 0V16.8Z"/><path d="M8.174 16.785a.36.36 0 0 1 0 .51l-1.44 1.44a.36.36 0 1 1-.509-.51l1.44-1.44a.36.36 0 0 1 .51 0h-.001Zm7.306.015a.36.36 0 0 1 .36-.36h1.44a.361.361 0 0 1 .333.498.359.359 0 0 1-.333.222H16.2v1.08a.36.36 0 0 1-.72 0V16.8Z"/><path d="M15.826 16.785a.359.359 0 0 0 0 .51l1.44 1.44a.36.36 0 0 0 .509-.51l-1.44-1.44a.36.36 0 0 0-.51 0h.001Z"/></g><defs><clipPath id="a"><path fill="#fff" d="M0 0h24v24H0z"/></clipPath></defs></svg>