<svg width="30" height="30" fill="none" xmlns="http://www.w3.org/2000/svg"><path fill-rule="evenodd" clip-rule="evenodd" d="m18.29 4.679.436.421h1.078c.504 0 .888.132 1.212.368.34.248.697.671 1.022 1.374.665 1.441 1.067 3.78 1.067 7.161 0 6.704 1.846 9.897 2.866 11.138a4.812 4.812 0 0 1-.663.381c-.794.383-2.188.836-4.446.909-3.071.099-4.9.072-7.128.04-1.301-.018-2.74-.04-4.64-.038-2.335.002-3.696-.454-4.433-.833a3.673 3.673 0 0 1-.657-.421C5.017 23.966 6.9 20.773 6.9 14.003 6.9 5.956 12.716 3.5 15.003 3.5c1.065 0 1.644.115 2.042.275.385.155.723.4 1.244.904Zm9.07 21.262a.51.51 0 0 1 .052-.047.802.802 0 0 0 .388-.637.813.813 0 0 0-.306-.685c-.029-.022-2.889-2.384-2.889-10.569 0-6.902-1.614-10.403-4.8-10.403h-.473C18.182 2.49 17.32 2 15.002 2 11.997 2 5.4 5.023 5.4 14.003c0 8.185-2.86 10.547-2.88 10.563a.8.8 0 0 0 .067 1.325.44.44 0 0 1 .053.054c.297.326 1.815 1.991 6.454 1.988 1.853-.001 3.277.02 4.577.038 2.256.032 4.138.059 7.239-.041 4.493-.145 6.139-1.696 6.45-1.99Zm-11.414-8.75a.62.62 0 0 1 1.068-.353l1.393 1.488.088.086c.275.248.635.38 1.004.37l2.037-.055.088.003c.51.053.746.699.352 1.068l-1.488 1.394-.086.088c-.247.272-.38.631-.37 1.002l.056 2.037-.004.088a.62.62 0 0 1-1.068.352l-1.392-1.487-.088-.087a1.439 1.439 0 0 0-1.003-.37l-2.038.056-.088-.003a.62.62 0 0 1-.352-1.069l1.488-1.392.087-.088a1.44 1.44 0 0 0 .37-1.003l-.057-2.037.003-.088Zm1.557 1.98-.277-.295.011.406v.153l-.01.163a2.68 2.68 0 0 1-.838 1.713l-.296.277.406-.01h.153l.163.01c.655.06 1.265.357 1.714.837l.276.296-.01-.406v-.152l.01-.163c.059-.655.357-1.265.837-1.713l.296-.278-.406.01h-.153a2.679 2.679 0 0 1-1.876-.847Z" fill="#485FC7"/></svg>