<svg width="24" height="24" viewBox="0 0 30 30" fill="none" xmlns="http://www.w3.org/2000/svg"><path fill-rule="evenodd" clip-rule="evenodd" d="M24.273 5C25.778 5 27 6.244 27 7.778v14.444C27 23.756 25.778 25 24.273 25H5.727C4.222 25 3 23.756 3 22.222V7.778C3 6.244 4.222 5 5.727 5h18.546ZM9.002 17.535 4.999 22.02v.968h9.016v-.013H25.01v-.928l-6.233-6.637-6.218 5.307-3.557-3.183v.001ZM23.614 7H6.386c-.85 0-1.325.376-1.38 1.169L5 8.333v10.314l2.667-2.257c.426-.368.844-.557 1.333-.557.429 0 .849.152 1.24.437l.167.13 1.916 1.65 4.698-4.008c.479-.407.989-.587 1.562-.587.484 0 .958.153 1.377.457l.176.14L25 18.398V8.333c0-.849-.43-1.279-1.222-1.328L23.614 7Zm-10.89 4.667c0-1.211-.986-2.223-2.178-2.223-1.2 0-2.186 1.012-2.186 2.223 0 1.23.986 2.222 2.186 2.222 1.192 0 2.177-.992 2.177-2.222h.001Z" fill="#485FC7"/></svg>