<svg width="24" height="24" fill="none" xmlns="http://www.w3.org/2000/svg"><path fill-rule="evenodd" clip-rule="evenodd" d="M5.919 2.442a.446.446 0 0 1 .546-.316l1.71.458a.446.446 0 0 1-.231.862l-1.278-.343-.343 1.278a.446.446 0 1 1-.861-.23l.458-1.71H5.92Z" fill="#485FC7"/><path fill-rule="evenodd" clip-rule="evenodd" d="M6.377 2.604a.446.446 0 0 1 .61.163l1.375 2.384a.446.446 0 1 1-.772.446L6.215 3.213a.446.446 0 0 1 .162-.61ZM5.92 21.558a.446.446 0 0 0 .546.316l1.71-.458a.447.447 0 1 0-.231-.86l-1.278.341-.343-1.278a.446.446 0 1 0-.861.232l.458 1.709-.001-.002Z" fill="#485FC7"/><path fill-rule="evenodd" clip-rule="evenodd" d="M6.377 21.398c.213.122.486.05.61-.165l1.375-2.383a.446.446 0 1 0-.772-.445l-1.375 2.382a.446.446 0 0 0 .162.61ZM8.162 8.55l-.096.04-.04.017-.092.043-.09.045-.091.047-.09.05-.09.051-.094.056a7.727 7.727 0 0 0-.042.025l-.093.06-.09.059-.092.062-.138.095-.092.066-.186.136-.163.124-.165.126-.59.458-.173.132-.176.132-.176.129c-.507.365-1.057.713-1.67.953.46.284.875.577 1.26.873l.002.002.178.138.09.071v.001l.174.14.17.14.168.139.244.205.47.403.306.26.227.19.15.122.15.12h.001l.149.117.152.115c1.14.847 2.392 1.45 4.477 1.451l.137-.001h.003c2-.026 3.224-.622 4.339-1.45l.001-.002.151-.114h.001l.149-.115.15-.121.074-.06.151-.124.227-.19.002-.004.62-.528.002-.002.325-.275.167-.138.17-.14.17-.136.003-.003.088-.07.002-.002.178-.138c.384-.296.8-.59 1.26-.874-.612-.24-1.164-.588-1.67-.953l-.003-.003-.177-.13-.174-.13-.173-.132-.587-.456-.001-.001-.162-.124-.004-.002-.161-.122-.186-.137-.092-.066-.138-.095-.09-.062-.14-.09-.09-.055-.091-.055-.09-.052-.091-.05-.09-.046-.09-.045-.093-.043a6.8 6.8 0 0 0-.04-.017l-.095-.04a2.542 2.542 0 0 0-1.504-.156c-.544.111-1.174.418-1.92 1.049l-.126.108a.446.446 0 0 1-.582 0l-.125-.108c-.747-.632-1.376-.938-1.92-1.05a2.542 2.542 0 0 0-1.504.157Zm3.84.08c-.763-.614-1.474-.97-2.157-1.11a3.433 3.433 0 0 0-2.019.204l-.106.045-.007.002-.054.025-.105.048-.01.005-.1.05-.008.003-.1.051-.008.005-.098.053-.007.005-.1.056-.102.062-.004.002-.052.033-.099.061-.102.069-.102.068-.149.102-.101.072-.196.144-.172.13-.17.13-.59.458-.166.126-.167.127-.17.124c-.763.55-1.523.977-2.385 1.08a.446.446 0 0 0-.149.843c.742.377 1.446.823 2.103 1.334l.173.133.083.067.169.135.164.135.161.135.24.2.002.003.468.402h.001l.309.262.232.194.158.13.157.124.002.003.161.124.158.12.003.002c1.267.943 2.704 1.629 5.01 1.629h.005l.14-.002h.004c2.223-.028 3.624-.705 4.864-1.627l.158-.12.003-.002.16-.124.002-.003.155-.122v-.002l.08-.064.155-.127.233-.196.624-.533.001-.002.317-.268.004-.002.158-.133.003-.002.163-.134.168-.135.084-.065.173-.135c.657-.511 1.36-.958 2.102-1.335a.446.446 0 0 0-.148-.84c-.863-.105-1.622-.532-2.385-1.082h-.001l-.168-.124-.17-.127-.165-.126-.002-.002-.586-.455-.169-.13-.17-.127-.196-.144-.1-.072-.149-.103-.102-.069-.152-.098-.007-.005-.097-.06-.104-.061-.104-.062-.007-.004-.1-.053-.007-.005-.099-.05-.009-.006-.099-.05-.01-.003-.1-.047-.005-.001a4.604 4.604 0 0 0-.056-.025l-.106-.045-.005-.002a3.433 3.433 0 0 0-2.019-.203c-.684.14-1.395.495-2.158 1.11Z" fill="#485FC7"/><path fill-rule="evenodd" clip-rule="evenodd" d="M2.357 11.305a.446.446 0 0 1 .446-.446c2.519 0 4.09.246 5.407.492l.472.089c1.097.21 2.033.387 3.32.387a.446.446 0 0 1 0 .892c-1.375 0-2.393-.194-3.49-.404l-.466-.088c-1.28-.239-2.793-.476-5.243-.476a.446.446 0 0 1-.446-.446ZM8.76 9.014c.47-.097.899.012 1.35.221a.446.446 0 0 1-.377.808c-.359-.166-.584-.198-.795-.156-.234.047-.521.2-.976.562a.446.446 0 1 1-.556-.698c.48-.38.904-.647 1.354-.738Zm7.866 3.948a.448.448 0 0 1-.07.626l-.164.132c-.66.528-1.206.966-2.249 1.278a.446.446 0 0 1-.255-.855c.873-.26 1.298-.6 1.957-1.127l.156-.124a.446.446 0 0 1 .625.07Z" fill="#485FC7"/><path fill-rule="evenodd" clip-rule="evenodd" d="M15.492 12.315c-1.098.21-2.114.404-3.49.404a.446.446 0 0 1 0-.892c1.288 0 2.223-.178 3.32-.387l.472-.09c1.319-.245 2.888-.491 5.408-.491a.446.446 0 0 1 0 .892c-2.451 0-3.963.237-5.245.476l-.466.087v.001Zm3.103-9.873a.446.446 0 0 0-.546-.316l-1.71.458a.446.446 0 0 0 .231.862l1.278-.343.343 1.278a.447.447 0 1 0 .86-.23l-.457-1.71Z" fill="#485FC7"/><path fill-rule="evenodd" clip-rule="evenodd" d="M18.137 2.604a.445.445 0 0 0-.61.163l-1.375 2.384a.446.446 0 0 0 .771.446L18.3 3.213a.447.447 0 0 0-.163-.61Zm.458 18.954a.443.443 0 0 1-.372.328.446.446 0 0 1-.174-.012l-1.709-.458a.447.447 0 1 1 .23-.86l1.278.341.343-1.278a.447.447 0 1 1 .861.232l-.458 1.709.001-.002Z" fill="#485FC7"/><path fill-rule="evenodd" clip-rule="evenodd" d="M18.137 21.398a.446.446 0 0 1-.61-.165l-1.375-2.383a.446.446 0 0 1 .772-.446l1.375 2.383a.444.444 0 0 1-.162.61Z" fill="#485FC7"/></svg>