<svg width="30" height="30" fill="none" xmlns="http://www.w3.org/2000/svg"><path fill-rule="evenodd" clip-rule="evenodd" d="M23.788 2.995C26.114 2.995 28 4.459 28 6.264c0 .683-.27 1.318-.733 1.843l-.144.154-6.539 6.523.134.132a.941.941 0 0 1 0 1.332l-2.807 2.802a1.88 1.88 0 0 1-.128 2.523l-5.338 5.324a3.776 3.776 0 0 1-4.112.816 3.775 3.775 0 0 1-1.225-.816l-4.003-3.993a3.764 3.764 0 0 1-.818-4.103c.19-.457.468-.872.818-1.222l5.337-5.325a1.889 1.889 0 0 1 2.529-.126l2.809-2.802a.944.944 0 0 1 1.334 0l.133.133 5.23-5.218c.772-.758 1.967-1.246 3.31-1.246Zm3.43 17.851a.847.847 0 0 1 0 1.199l-1.467 1.463 1.467 1.465a.849.849 0 0 1 0 1.198.85.85 0 0 1-1.201 0l-1.467-1.464-1.468 1.464a.848.848 0 0 1-1.201 0 .849.849 0 0 1 0-1.198l1.467-1.465-1.467-1.463a.849.849 0 0 1 0-1.199.848.848 0 0 1 1.2 0l1.468 1.464 1.468-1.463a.848.848 0 0 1 1.2 0ZM9.685 13.422l-.04.03-5.338 5.326a2.068 2.068 0 0 0-.1 2.82l.1.108L8.31 25.7a2.078 2.078 0 0 0 2.827.1l.108-.1 5.338-5.325a.188.188 0 0 0 .03-.226l-.03-.04-6.672-6.656a.189.189 0 0 0-.226-.031Zm.893 2.959a.847.847 0 0 1 0 1.198L7.11 21.04a.85.85 0 0 1-1.2-1.198l3.468-3.461a.85.85 0 0 1 1.201 0Zm3.87-5.325-2.269 2.263 4.537 4.527 2.268-2.263-4.537-4.527Zm5.35-3.74-3.349 3.34 2.936 2.93 4.072-4.063c-1.707-.103-3.128-.994-3.66-2.207ZM6.738 6.45a.847.847 0 0 1 0 1.2l-.8.799.802.798a.847.847 0 0 1-.602 1.447.85.85 0 0 1-.6-.249l-.801-.798-.8.798a.85.85 0 0 1-1.397-.923.847.847 0 0 1 .197-.275l.8-.798-.8-.8a.846.846 0 0 1 .61-1.41.85.85 0 0 1 .589.213l.8.8.802-.8a.85.85 0 0 1 1.2 0V6.45Zm17.049-1.76c-1.468 0-2.514.81-2.514 1.574 0 .763 1.046 1.575 2.515 1.575 1.468 0 2.514-.812 2.514-1.575 0-.762-1.046-1.575-2.514-1.575l-.001.001ZM13.937 2a1.417 1.417 0 0 1 1.414 1.412 1.41 1.41 0 0 1-1.415 1.412 1.417 1.417 0 0 1-1.415-1.412A1.41 1.41 0 0 1 13.936 2Z" fill="#485FC7"/></svg>