<svg width="30" height="30" fill="none" xmlns="http://www.w3.org/2000/svg"><path fill-rule="evenodd" clip-rule="evenodd" d="M20.622 9.518a.59.59 0 0 1 .142.605l-1.288 3.8 2.403 3.218a.589.589 0 0 1-.479.94l-4.013-.054-2.316 3.276a.588.588 0 0 1-1.04-.164l-1.194-3.834-3.834-1.193a.589.589 0 0 1-.164-1.043l3.274-2.315-.054-4.012a.588.588 0 0 1 .942-.48l3.216 2.403 3.8-1.287a.588.588 0 0 1 .605.14Zm-1.357 1.357-2.963 1.003a.588.588 0 0 1-.54-.086l-2.51-1.873.041 3.128a.589.589 0 0 1-.248.49l-2.555 1.805 2.991.931a.587.587 0 0 1 .387.386l.932 2.991 1.805-2.554a.588.588 0 0 1 .488-.249l3.128.04-1.873-2.508a.588.588 0 0 1-.085-.54l1.004-2.964h-.002Zm-8.734 8.589a.589.589 0 0 1 0 .832L4 26.827a.59.59 0 0 1-.834-.832l6.533-6.531a.588.588 0 0 1 .834 0h-.002Zm5.02-15.287a1.177 1.177 0 0 1 2.354 0v.078h.079a1.177 1.177 0 1 1 0 2.354h-.079v.078a1.177 1.177 0 0 1-2.353 0V6.61h-.079a1.177 1.177 0 0 1 0-2.354h.079v-.078Zm1.178.667a.588.588 0 0 1-.589.588.588.588 0 0 1 .589.588.589.589 0 0 1 .588-.588.588.588 0 0 1-.588-.588ZM6.137 9.669a1.177 1.177 0 0 1 2.354 0v.078h.078a1.177 1.177 0 1 1 0 2.354h-.078v.078a1.177 1.177 0 0 1-2.354 0v-.078H6.06a1.177 1.177 0 0 1 0-2.354h.078v-.078Zm1.177.666a.588.588 0 0 1-.588.589.589.589 0 0 1 .588.588.588.588 0 0 1 .589-.588.588.588 0 0 1-.589-.589Zm16.083 1.945a1.177 1.177 0 0 1 2.354 0v.079h.078a1.177 1.177 0 1 1 0 2.354h-.078v.078a1.177 1.177 0 1 1-2.354 0v-.079h-.078a1.177 1.177 0 0 1 0-2.353h.078v-.079Zm1.177.667a.588.588 0 0 1-.588.589.588.588 0 0 1 .588.588.588.588 0 0 1 .588-.588.588.588 0 0 1-.588-.589Zm-5.884 8.748a1.178 1.178 0 0 1 2.354 0v.078h.078a1.177 1.177 0 0 1 0 2.354h-.078v.078a1.177 1.177 0 0 1-2.354 0v-.078h-.078a1.176 1.176 0 1 1 0-2.354h.078v-.078Zm1.177.667a.588.588 0 0 1-.589.588.588.588 0 0 1 .589.588.588.588 0 0 1 .588-.588.588.588 0 0 1-.588-.588Z" fill="#485FC7"/></svg>