<svg width="30" height="30" fill="none" xmlns="http://www.w3.org/2000/svg"><path fill-rule="evenodd" clip-rule="evenodd" d="M16.581 17.224c-.232-.61-1.062-.643-1.357-.096l-.044.096-.874 2.307a1.74 1.74 0 0 1-.874.952l-.137.059-2.306.874c-.61.232-.644 1.062-.097 1.358l.097.044 2.306.875c.42.159.76.472.952.874l.06.138.874 2.304c.23.611 1.062.644 1.357.097l.044-.097.874-2.305c.159-.42.474-.76.875-.952l.136-.06 2.307-.874c.61-.232.643-1.063.097-1.358l-.097-.044-2.305-.874a1.744 1.744 0 0 1-.954-.875l-.059-.137-.875-2.306Zm-.7 2.378.175.459a3.238 3.238 0 0 0 1.71 1.81l.17.071.46.174-.46.175a3.236 3.236 0 0 0-1.724 1.532l-.086.178-.07.171-.175.46-.173-.459a3.238 3.238 0 0 0-1.533-1.725l-.178-.086-.171-.07-.46-.175.46-.175a3.242 3.242 0 0 0 1.725-1.531l.086-.178.07-.171.174-.46Zm-8.5-11.068-.044.097-1 2.636A2.097 2.097 0 0 1 5.27 12.42l-.15.064-2.635.999c-.611.232-.644 1.062-.097 1.357l.097.044 2.635 1c.509.193.923.576 1.155 1.068l.063.15 1 2.636c.23.61 1.062.643 1.357.096l.044-.097 1-2.635a2.1 2.1 0 0 1 1.067-1.155l.15-.062 2.637-1c.61-.232.642-1.063.096-1.358l-.097-.044-2.635-.998a2.1 2.1 0 0 1-1.154-1.07l-.065-.15-1-2.635c-.232-.61-1.062-.643-1.357-.097Zm18.856 9.529a1.542 1.542 0 1 0 0 3.085 1.542 1.542 0 0 0 0-3.085Zm-18.2-7.055.3.79a3.596 3.596 0 0 0 1.898 2.009l.19.079.789.298-.79.3a3.593 3.593 0 0 0-1.921 1.714l-.089.184-.077.19-.3.788-.3-.787a3.592 3.592 0 0 0-1.713-1.922l-.184-.088-.19-.079-.79-.3.79-.299a3.599 3.599 0 0 0 1.922-1.713l.088-.184.078-.19.3-.79ZM19.9 2.918l-.045.1-1.25 3.295a2.764 2.764 0 0 1-1.437 1.536l-.168.07-3.295 1.249c-.647.246-.681 1.125-.102 1.437l.102.046 3.296 1.252a2.755 2.755 0 0 1 1.534 1.436l.07.169 1.25 3.294c.244.646 1.124.68 1.436.102l.047-.102 1.25-3.295a2.77 2.77 0 0 1 1.436-1.535l.169-.07 3.296-1.25c.646-.246.68-1.125.101-1.436l-.102-.048-3.294-1.248a2.768 2.768 0 0 1-1.536-1.44l-.07-.167-1.25-3.294c-.246-.647-1.125-.68-1.437-.102Zm.697 2.618.507 1.34a4.352 4.352 0 0 0 2.324 2.444l.203.082 1.339.508-1.34.509a4.347 4.347 0 0 0-2.35 2.125l-.093.197-.083.203-.507 1.34-.508-1.338a4.348 4.348 0 0 0-2.127-2.353l-.197-.091-.203-.083-1.339-.509 1.34-.508a4.355 4.355 0 0 0 2.35-2.126l.093-.198.083-.202.508-1.34Zm-9.21-2.456a1.322 1.322 0 1 0 0 2.644 1.322 1.322 0 0 0 0-2.644Z" fill="#485FC7"/></svg>