<svg width="30" height="30" fill="none" xmlns="http://www.w3.org/2000/svg"><path fill-rule="evenodd" clip-rule="evenodd" d="M15 3.13C9.056 3.13 4.26 7.536 4.26 13.87c0 2.173.56 3.736 1.512 4.868a14.352 14.352 0 0 1-.358-2.12c-.229-2.495.346-4.387 1.514-5.755 1.155-1.354 2.829-2.124 4.663-2.51h.007l.355-.07.189-.032.369-.058.375-.047.381-.04.193-.017.38-.026.192-.01.196-.01.38-.01.345-.003.383.003.391.01.192.01.196.01.38.026.193.018.372.039.375.047.37.058.188.031.36.071.199.044c1.788.405 3.411 1.188 4.527 2.539 1.126 1.362 1.679 3.23 1.453 5.683-.07.743-.197 1.48-.38 2.204.997-1.138 1.585-2.727 1.585-4.953C25.738 7.536 20.944 3.13 15 3.13ZM3.13 13.87C3.131 6.883 8.458 2 15 2c6.54 0 11.869 4.883 11.869 11.869 0 3.491-1.34 5.757-3.564 7.113l-1.46.892.642-1.586c.471-1.163.796-2.433.92-3.775.204-2.22-.301-3.773-1.198-4.858-.904-1.094-2.265-1.785-3.904-2.157h-.002l-.177-.04-.338-.065-.165-.028-.345-.054-.345-.044-.355-.036-.174-.016-.362-.025-.179-.01-.18-.007-.366-.01-.367-.004-.319.003-.366.011-.18.008-.18.01-.36.024-.173.016-.355.036-.347.044-.345.054-.165.028-.34.067c-1.685.354-3.094 1.037-4.032 2.135-.927 1.088-1.454 2.657-1.247 4.918.122 1.326.441 2.582.904 3.734l.647 1.608-1.47-.918c-2.182-1.361-3.49-3.617-3.49-7.068Z" fill="#485FC7"/><path fill-rule="evenodd" clip-rule="evenodd" d="m14.953 8.029.385.003.39.01.192.01.196.01.38.026.193.018.372.039.375.047.37.058.188.031.36.071c1.836.386 3.51 1.156 4.665 2.51 1.167 1.368 1.743 3.26 1.514 5.754a14.35 14.35 0 0 1-3.352 7.976c-1.732 2.012-3.94 3.328-6.044 3.403h-.007L15 28l-.188-.005c-2.104-.073-4.313-1.39-6.045-3.403a14.35 14.35 0 0 1-3.352-7.976c-.229-2.496.346-4.386 1.514-5.754 1.155-1.354 2.829-2.124 4.663-2.51h.007l.355-.07.189-.032.369-.058.375-.047.381-.04.193-.017.377-.026a15.4 15.4 0 0 1 .385-.02h.006l.38-.01.345-.003h-.001Zm-.003 1.13-.319.003-.367.011-.357.016-.36.027-.177.015-.353.036-.347.044-.345.054-.165.028-.34.067c-1.685.354-3.094 1.037-4.032 2.135-.927 1.088-1.454 2.657-1.247 4.918a13.22 13.22 0 0 0 3.083 7.342c1.608 1.869 3.544 2.95 5.222 3.011l.15.002.103-.002c1.68-.06 3.616-1.142 5.225-3.01a13.22 13.22 0 0 0 3.083-7.343c.209-2.261-.32-3.83-1.247-4.917-.938-1.1-2.347-1.782-4.033-2.136l-.339-.067-.165-.028-.345-.054-.345-.044-.355-.036-.174-.016-.362-.025-.179-.01-.18-.007-.366-.01-.367-.004Z" fill="#485FC7"/><path fill-rule="evenodd" clip-rule="evenodd" d="M17.72 22.582a.564.564 0 0 1-.13.79 4.423 4.423 0 0 1-2.59.858 4.421 4.421 0 0 1-2.59-.858.565.565 0 0 1 .659-.919c.584.418 1.24.647 1.931.647.69 0 1.347-.23 1.931-.648a.565.565 0 0 1 .79.13Zm3.693-6.113a.565.565 0 0 1 .03.8c-.518.556-1.173.933-1.922.933-.748 0-1.403-.377-1.921-.934a.565.565 0 0 1 .829-.77c.375.404.749.573 1.093.573.345 0 .719-.169 1.092-.573a.565.565 0 0 1 .8-.03Zm.83-1.517a.566.566 0 0 0-.131-.79 4.421 4.421 0 0 0-2.59-.858c-.95 0-1.834.317-2.591.858a.566.566 0 0 0 .66.919c.583-.418 1.24-.647 1.93-.647.691 0 1.348.23 1.931.647a.563.563 0 0 0 .79-.129Zm-9.044 0a.566.566 0 0 0-.13-.79 4.421 4.421 0 0 0-2.59-.858c-.95 0-1.834.317-2.59.858a.566.566 0 0 0 .659.919c.584-.418 1.24-.647 1.93-.647.691 0 1.348.23 1.932.647a.563.563 0 0 0 .79-.129Zm-.829 1.517a.564.564 0 0 1 .03.8c-.518.556-1.173.933-1.921.933-.75 0-1.404-.377-1.922-.934a.565.565 0 1 1 .829-.77c.375.404.749.573 1.093.573.345 0 .719-.169 1.092-.573a.565.565 0 0 1 .8-.03Z" fill="#485FC7"/></svg>