<svg width="24" height="24" fill="none" xmlns="http://www.w3.org/2000/svg"><path fill-rule="evenodd" clip-rule="evenodd" d="M14.104 5.755v.04l.004.122c.02.68.06 1.358.12 2.035.111 1.274.322 2.867.715 4.189.409 1.378.986 1.916 1.462 2.302.042.034.086.07.132.105.203.16.426.337.593.544.23.284.361.626.361 1.093 0 .48-.21.874-.486 1.182-.273.303-.624.538-.953.713-.409.216-.84.386-1.287.506l-.024.007-.007.001h-.002v.001l-.094-.378.093.378a.4.4 0 0 1-.191-.777h.004l.017-.005c.015-.004.039-.01.07-.02a5.413 5.413 0 0 0 1.044-.418c.285-.152.548-.335.735-.543.184-.205.282-.418.282-.647 0-.293-.076-.455-.185-.59-.105-.131-.24-.238-.434-.393l-.171-.137c-.572-.463-1.261-1.13-1.726-2.697-.416-1.399-.632-3.054-.746-4.346a36.521 36.521 0 0 1-.125-2.211v-.045l.4-.006-.4.005a.4.4 0 0 1 .8-.01h-.001Zm-4.397 0v.04a34.202 34.202 0 0 1-.123 2.157c-.112 1.274-.323 2.867-.715 4.189-.41 1.378-.986 1.916-1.463 2.302l-.131.105c-.203.16-.427.337-.594.544-.229.284-.361.626-.361 1.093 0 .48.21.874.486 1.182.273.303.625.538.954.713.409.216.84.386 1.286.506l.024.007.007.001h.002l.001.001.094-.378-.094.378a.4.4 0 1 0 .192-.777h-.004l-.017-.005a5.41 5.41 0 0 1-1.114-.438 2.732 2.732 0 0 1-.736-.543c-.184-.205-.281-.418-.281-.647 0-.293.075-.455.184-.59.106-.131.24-.238.435-.393l.171-.137c.571-.463 1.26-1.13 1.726-2.697.415-1.399.632-3.054.745-4.346.064-.736.106-1.473.126-2.211v-.045l-.4-.006.4.005a.4.4 0 1 0-.8-.01Z" fill="#485FC7"/><path fill-rule="evenodd" clip-rule="evenodd" d="M8.183 16.111a.4.4 0 0 1 .4-.4c.98 0 1.49.51 1.9.92l.012.012c.403.404.708.698 1.347.698.65 0 1.015-.307 1.444-.707l.067-.063c.405-.38.915-.86 1.748-.86a.4.4 0 1 1 0 .8c-.512 0-.806.276-1.256.696l-.013.012c-.445.415-1.01.922-1.99.922s-1.49-.51-1.9-.92l-.013-.012c-.403-.403-.707-.698-1.346-.698a.4.4 0 0 1-.4-.4ZM7.389 11a.401.401 0 0 0 0-.566L6.03 9.075a.4.4 0 1 0-.566.566l1.075 1.074-1.075 1.075a.4.4 0 1 0 .566.566l1.358-1.358.001.002Z" fill="#485FC7"/><path fill-rule="evenodd" clip-rule="evenodd" d="M7.102 10.716a.4.4 0 0 0-.4-.4H4a.4.4 0 1 0 0 .8h2.702a.4.4 0 0 0 .4-.4Zm9.509.284a.4.4 0 0 1 0-.566l1.358-1.358a.4.4 0 1 1 .566.566l-1.075 1.074 1.075 1.075a.4.4 0 0 1-.566.566l-1.358-1.358V11Z" fill="#485FC7"/><path fill-rule="evenodd" clip-rule="evenodd" d="M16.898 10.716a.4.4 0 0 1 .4-.4h2.703a.4.4 0 0 1 0 .8h-2.703a.4.4 0 0 1-.4-.4Z" fill="#485FC7"/></svg>