<svg width="30" height="30" fill="none" xmlns="http://www.w3.org/2000/svg"><path fill-rule="evenodd" clip-rule="evenodd" d="M24.262 3A2.733 2.733 0 0 1 27 5.727v7.637a2.733 2.733 0 0 1-2.738 2.727h-4.929a2.733 2.733 0 0 1-2.738-2.727V5.727A2.733 2.733 0 0 1 19.333 3h4.929Zm-9.857 13.636a2.733 2.733 0 0 0-2.738-2.727H6.738A2.733 2.733 0 0 0 4 16.636v7.637A2.733 2.733 0 0 0 6.738 27h4.929a2.733 2.733 0 0 0 2.738-2.727v-7.637ZM27 21a2.733 2.733 0 0 0-2.738-2.727h-4.929A2.733 2.733 0 0 0 16.595 21v3.273A2.733 2.733 0 0 0 19.333 27h4.929A2.733 2.733 0 0 0 27 24.273V21Zm-15.333-5.454H6.738c-.562 0-1.025.42-1.088.963l-.007.127v7.637c0 .56.423 1.02.967 1.083l.128.008h4.929c.561 0 1.024-.422 1.088-.964l.007-.127v-7.637c0-.56-.423-1.02-.968-1.083l-.127-.008v.001Zm7.666 4.363h4.929l.128.007c.544.063.967.524.967 1.084v3.273l-.007.127a1.094 1.094 0 0 1-1.088.964h-4.929l-.127-.008a1.093 1.093 0 0 1-.968-1.083V21l.008-.127a1.094 1.094 0 0 1 1.087-.964Zm0-15.273h4.929l.128.008c.544.063.967.524.967 1.083v7.637l-.007.127a1.094 1.094 0 0 1-1.088.963h-4.929l-.127-.007a1.093 1.093 0 0 1-.968-1.083V5.727l.008-.127a1.094 1.094 0 0 1 1.087-.964ZM11.667 3a2.733 2.733 0 0 1 2.738 2.727V9a2.733 2.733 0 0 1-2.738 2.727H6.738A2.733 2.733 0 0 1 4 9V5.727A2.733 2.733 0 0 1 6.738 3h4.929ZM6.738 4.636h4.929l.127.008c.545.063.968.524.968 1.083V9l-.007.127a1.094 1.094 0 0 1-1.088.964H6.738l-.128-.007A1.093 1.093 0 0 1 5.643 9V5.727L5.65 5.6a1.094 1.094 0 0 1 1.088-.964Z" fill="#485FC7"/></svg>