<svg width="24" height="24" viewBox="0 0 30 30" fill="none" xmlns="http://www.w3.org/2000/svg"><path d="M18.48 7.61a.808.808 0 0 0 .72 1.446l-.72-1.447ZM15 7.605v-.808.808ZM9.666 9.24l-.453-.67.453.67ZM6.13 13.592l.747.307-.747-.307Zm-.546 5.603.793-.156-.793.156Zm2.628 4.965.574-.569-.574.569Zm4.914 2.654-.16.792.16-.792Zm5.546-.552.312.745-.312-.745Zm4.308-3.571-.674-.446.674.446Zm2.427-5.389a.808.808 0 1 0-1.616 0h1.616Zm-9.834-14.87a.808.808 0 0 0-1.148 1.136l1.148-1.136ZM19.8 7.848l.574.568a.808.808 0 0 0 0-1.137l-.574.569Zm-5.374 4.28a.808.808 0 1 0 1.148 1.136l-1.148-1.137Zm4.414-3.795.36.723h.002l.002-.002a.43.43 0 0 0 .049-.026c.024-.014.055-.032.09-.056.06-.04.174-.123.275-.25a.953.953 0 0 0 .2-.76c-.065-.366-.318-.578-.489-.682-.316-.194-.794-.296-1.403-.364-.65-.073-1.587-.118-2.926-.118v1.616c1.311 0 2.18.045 2.747.108.608.068.759.148.74.136a.613.613 0 0 1-.26-.414.664.664 0 0 1 .126-.528c.047-.059.088-.084.089-.085a.22.22 0 0 1 .024-.015l.006-.003.004-.002a.028.028 0 0 0 .003-.001l.36.723ZM15 6.798A10.34 10.34 0 0 0 9.213 8.57l.905 1.338A8.723 8.723 0 0 1 15 8.414V6.798ZM9.213 8.57a10.485 10.485 0 0 0-3.83 4.716l1.496.611a8.869 8.869 0 0 1 3.24-3.989l-.906-1.338Zm-3.83 4.715a10.597 10.597 0 0 0-.591 6.065l1.586-.312a8.98 8.98 0 0 1 .5-5.14l-1.495-.613Zm-.591 6.065c.4 2.033 1.39 3.903 2.846 5.377l1.15-1.137a8.919 8.919 0 0 1-2.41-4.552l-1.586.312Zm2.846 5.376a10.38 10.38 0 0 0 5.329 2.879l.32-1.584a8.763 8.763 0 0 1-4.5-2.43l-1.149 1.135Zm5.33 2.879c2.02.406 4.116.197 6.017-.599l-.624-1.49a8.702 8.702 0 0 1-5.075.505l-.318 1.584Zm6.018-.599a10.43 10.43 0 0 0 4.67-3.871l-1.35-.89a8.814 8.814 0 0 1-3.945 3.27l.625 1.491Zm4.67-3.87a10.574 10.574 0 0 0 1.752-5.835h-1.616a8.96 8.96 0 0 1-1.485 4.943l1.348.891Zm-9.23-19.569 4.8 4.848 1.148-1.137-4.8-4.847-1.148 1.136Zm4.8 3.711-4.8 4.848 1.148 1.137 4.8-4.848-1.148-1.137Z" fill="#485FC7"/></svg>