<svg width="30" height="30" fill="none" xmlns="http://www.w3.org/2000/svg"><path fill-rule="evenodd" clip-rule="evenodd" d="M15 2c6.572 0 11.9 5.327 11.9 11.9 0 3.43-1.451 6.52-3.774 8.693l3.289-.002c.48 0 .876.363.927.83l.005.103A4.476 4.476 0 0 1 22.87 28H7.129a4.476 4.476 0 0 1-4.476-4.476c0-.516.417-.933.933-.933l3.288.002A11.866 11.866 0 0 1 3.101 13.9C3.1 7.327 8.427 2 15 2Zm10.654 22.202H4.347l.027.108a2.867 2.867 0 0 0 2.592 2.074l.163.005h15.742a2.866 2.866 0 0 0 2.755-2.08l.028-.107ZM4.712 13.9C4.712 8.218 9.318 3.61 15 3.61S25.288 8.218 25.288 13.9l-.005.3a10.278 10.278 0 0 1-4.634 8.299l-.145.092H9.495l-.143-.091a10.278 10.278 0 0 1-4.639-8.6Zm16.301-.668a.806.806 0 0 1 .066 1.063l-.067.076-5.19 5.192a.806.806 0 0 1-1.207-1.063l.067-.076 5.191-5.192a.807.807 0 0 1 1.14 0Zm-.883-3.684a.806.806 0 0 0-1.207-1.064l-8.988 8.99-.068.076a.806.806 0 0 0 1.207 1.063l8.988-8.989.068-.076Zm-9.26 2.431a.805.805 0 0 1 .068 1.064l-.067.076-.747.746A.806.806 0 0 1 8.918 12.8l.066-.075.747-.747a.806.806 0 0 1 1.14 0Zm4.513-3.381a.806.806 0 0 0-1.207-1.064l-2.513 2.514-.067.076a.806.806 0 0 0 1.207 1.064l2.512-2.513.067-.076v-.001Z" fill="#485FC7"/></svg>