<svg width="24" height="24" fill="none" xmlns="http://www.w3.org/2000/svg"><path fill-rule="evenodd" clip-rule="evenodd" d="M12.024 6.743a.4.4 0 0 1 .05.5 6.17 6.17 0 0 1-.064.094l-.001.002-.19.275c-.218.322-.342.56-.342.767 0 .207.124.445.343.767l.25.365a.4.4 0 0 1-.55.56 8.677 8.677 0 0 1-.095-.063l-.002-.002-.275-.189c-.322-.218-.56-.342-.767-.342-.207 0-.445.124-.767.343l-.365.249a.4.4 0 0 1-.56-.55l.063-.094.002-.002.189-.276c.218-.321.342-.559.342-.766 0-.207-.124-.445-.343-.767l-.249-.365a.4.4 0 0 1 .55-.56l.094.063.002.001.276.19c.321.218.559.342.766.342.163 0 .358-.09.628-.264l.35-.23.027.04.004-.006-.025-.039.16-.1a.4.4 0 0 1 .499.057ZM10.72 8.04c-.222.059-.456.06-.679.002.027.11.043.222.043.339 0 .116-.016.23-.043.339a1.42 1.42 0 0 1 .34-.043c.116 0 .229.016.338.043a1.378 1.378 0 0 1 .001-.68Z" fill="#485FC7"/><path d="M13.535 4.595c-.585.35-1.284.35-1.87 0-2.53-1.51-5.565.618-5.565 3.9C6.1 10.561 7.587 19.1 9.913 19.1c.816 0 1.558-1.958 2.27-3.93.153-.425.68-.425.835 0 .711 1.972 1.454 3.93 2.27 3.93 2.302 0 3.812-8.473 3.812-10.605 0-3.281-3.034-5.41-5.565-3.9Zm1.752 13.723c-.482 0-1.08-1.892-1.642-3.447-.386-1.069-1.704-1.07-2.09 0-.56 1.555-1.16 3.447-1.642 3.447-1.487 0-3.134-7.397-3.134-9.823 0-2.7 2.498-4.445 4.573-3.206a2.4 2.4 0 0 0 2.496 0c2.073-1.238 4.573.503 4.573 3.206 0 2.415-1.646 9.823-3.134 9.823Z" fill="#485FC7"/><path fill-rule="evenodd" clip-rule="evenodd" d="m13.535 4.595-.051-.086c1.302-.777 2.736-.617 3.84.157 1.103.773 1.876 2.157 1.876 3.83 0 1.077-.38 3.738-1.047 6.128-.333 1.195-.74 2.33-1.211 3.168-.236.419-.49.768-.763 1.014s-.571.394-.892.394c-.245 0-.47-.147-.672-.37-.205-.223-.4-.539-.59-.91-.38-.743-.746-1.73-1.101-2.715-.064-.176-.198-.254-.324-.254s-.26.078-.324.254c-.355.984-.72 1.972-1.1 2.715-.19.371-.386.687-.59.91-.203.223-.428.37-.673.37-.324 0-.624-.149-.899-.397-.274-.247-.53-.6-.765-1.02-.472-.844-.879-1.985-1.211-3.184C6.374 12.2 6 9.54 6 8.495c0-1.672.774-3.056 1.876-3.829 1.105-.774 2.538-.934 3.84-.157a1.698 1.698 0 0 0 1.768 0l.051.086Zm-1.98 10.276-.094-.034c.207-.572.668-.868 1.14-.868.47 0 .931.296 1.138.868l-.093.033.093-.033.22.616c.21.595.422 1.194.629 1.686.14.332.274.61.402.804.063.097.123.169.176.215.055.047.094.06.121.06.144 0 .307-.09.488-.29.179-.197.36-.487.54-.85.36-.723.703-1.718 1-2.792.597-2.15 1.006-4.596 1.006-5.79 0-1.321-.61-2.401-1.466-3-.855-.598-1.956-.718-2.956-.12a2.5 2.5 0 0 1-2.598 0c-1-.598-2.102-.478-2.956.12-.856.6-1.466 1.68-1.466 3 0 1.199.409 3.645 1.006 5.794.298 1.073.64 2.067 1 2.79.18.362.362.651.54.849.18.2.344.29.488.29.027 0 .066-.014.12-.06.054-.047.114-.119.178-.216.157-.256.29-.525.401-.804.207-.492.419-1.09.63-1.686.073-.207.146-.414.22-.616l.093.034Zm-.203-9.582a2.4 2.4 0 0 0 2.496 0c2.073-1.238 4.573.503 4.573 3.206 0 2.416-1.646 9.823-3.134 9.823-.42 0-.929-1.436-1.424-2.834l-.218-.613c-.386-1.069-1.704-1.07-2.09 0l-.218.613c-.495 1.398-1.004 2.834-1.424 2.834-1.487 0-3.134-7.397-3.134-9.823 0-2.7 2.497-4.445 4.573-3.206Zm.313-.694c.585.35 1.285.35 1.87 0 2.531-1.51 5.565.619 5.565 3.9 0 2.132-1.51 10.605-3.813 10.605-.816 0-1.558-1.958-2.27-3.93-.153-.425-.68-.425-.835 0-.711 1.972-1.454 3.93-2.27 3.93C7.588 19.1 6.1 10.56 6.1 8.495c0-3.282 3.035-5.41 5.565-3.9Z" fill="#485FC7"/></svg>